<svg xmlns="http://www.w3.org/2000/svg" xmlns:xlink="http://www.w3.org/1999/xlink" width="500" zoomAndPan="magnify" viewBox="0 0 375 374.999991" height="500" preserveAspectRatio="xMidYMid meet" version="1.0"><defs><g/></defs><rect x="-37.5" width="450" fill="#ffffff" y="-37.499999" height="449.999989" fill-opacity="1"/><rect x="-37.5" width="450" fill="#ffffff" y="-37.499999" height="449.999989" fill-opacity="1"/><g fill="#2f6690" fill-opacity="1"><g transform="translate(118.091851, 174.415419)"><g><path d="M 2.890625 -39.8125 L 17.125 -39.8125 C 20.957031 -39.8125 24.078125 -38.785156 26.484375 -36.734375 C 28.898438 -34.691406 30.109375 -31.773438 30.109375 -27.984375 C 30.109375 -25.054688 29.375 -22.601562 27.90625 -20.625 C 26.445312 -18.644531 24.460938 -17.253906 21.953125 -16.453125 L 35.65625 0 L 24.125 0 L 11.96875 -15.734375 L 11.96875 0 L 2.890625 0 Z M 11.96875 -22.140625 L 13.03125 -22.140625 C 13.863281 -22.140625 14.566406 -22.15625 15.140625 -22.1875 C 15.722656 -22.226562 16.382812 -22.34375 17.125 -22.53125 C 17.863281 -22.726562 18.457031 -23.003906 18.90625 -23.359375 C 19.363281 -23.710938 19.75 -24.222656 20.0625 -24.890625 C 20.382812 -25.566406 20.546875 -26.390625 20.546875 -27.359375 C 20.546875 -28.328125 20.382812 -29.144531 20.0625 -29.8125 C 19.75 -30.488281 19.363281 -31.003906 18.90625 -31.359375 C 18.457031 -31.710938 17.863281 -31.984375 17.125 -32.171875 C 16.382812 -32.367188 15.722656 -32.484375 15.140625 -32.515625 C 14.566406 -32.546875 13.863281 -32.5625 13.03125 -32.5625 L 11.96875 -32.5625 Z M 11.96875 -22.140625 "/></g></g></g><g fill="#2f6690" fill-opacity="1"><g transform="translate(151.285014, 174.415419)"><g><path d="M 3.71875 -38.546875 C 4.71875 -39.546875 5.90625 -40.046875 7.28125 -40.046875 C 8.664062 -40.046875 9.859375 -39.546875 10.859375 -38.546875 C 11.859375 -37.554688 12.359375 -36.367188 12.359375 -34.984375 C 12.359375 -33.597656 11.859375 -32.40625 10.859375 -31.40625 C 9.859375 -30.414062 8.664062 -29.921875 7.28125 -29.921875 C 5.90625 -29.921875 4.71875 -30.414062 3.71875 -31.40625 C 2.71875 -32.40625 2.21875 -33.597656 2.21875 -34.984375 C 2.21875 -36.367188 2.71875 -37.554688 3.71875 -38.546875 Z M 2.890625 -24.75 L 2.890625 0 L 11.4375 0 L 11.4375 -24.75 Z M 2.890625 -24.75 "/></g></g></g><g fill="#2f6690" fill-opacity="1"><g transform="translate(164.504266, 174.415419)"><g><path d="M 5.015625 -40.53125 L 12.40625 -35.125 L 19.78125 -40.53125 L 23.0625 -36.140625 L 12.40625 -28.328125 L 1.734375 -36.140625 Z M 16.0625 -18.484375 C 14.457031 -18.484375 13.078125 -17.882812 11.921875 -16.6875 C 10.765625 -15.5 10.1875 -14.070312 10.1875 -12.40625 C 10.1875 -10.695312 10.765625 -9.242188 11.921875 -8.046875 C 13.078125 -6.859375 14.457031 -6.265625 16.0625 -6.265625 C 16.832031 -6.265625 17.5625 -6.359375 18.25 -6.546875 C 18.945312 -6.742188 19.457031 -6.941406 19.78125 -7.140625 L 20.21875 -7.4375 L 23.109375 -1.5 C 22.890625 -1.332031 22.578125 -1.128906 22.171875 -0.890625 C 21.765625 -0.648438 20.847656 -0.320312 19.421875 0.09375 C 17.992188 0.507812 16.457031 0.71875 14.8125 0.71875 C 11.175781 0.71875 7.984375 -0.554688 5.234375 -3.109375 C 2.484375 -5.671875 1.109375 -8.734375 1.109375 -12.296875 C 1.109375 -15.898438 2.484375 -18.992188 5.234375 -21.578125 C 7.984375 -24.171875 11.175781 -25.46875 14.8125 -25.46875 C 16.457031 -25.46875 17.96875 -25.273438 19.34375 -24.890625 C 20.726562 -24.503906 21.710938 -24.117188 22.296875 -23.734375 L 23.109375 -23.15625 L 20.21875 -17.328125 C 19.15625 -18.097656 17.769531 -18.484375 16.0625 -18.484375 Z M 16.0625 -18.484375 "/></g></g></g><g fill="#2f6690" fill-opacity="1"><g transform="translate(186.842045, 174.415419)"><g><path d="M 8.390625 -10.328125 C 9.941406 -10.328125 11.253906 -9.785156 12.328125 -8.703125 C 13.398438 -7.628906 13.9375 -6.320312 13.9375 -4.78125 C 13.9375 -3.269531 13.398438 -1.972656 12.328125 -0.890625 C 11.253906 0.179688 9.941406 0.71875 8.390625 0.71875 C 6.878906 0.71875 5.582031 0.179688 4.5 -0.890625 C 3.425781 -1.972656 2.890625 -3.269531 2.890625 -4.78125 C 2.890625 -6.320312 3.425781 -7.628906 4.5 -8.703125 C 5.582031 -9.785156 6.878906 -10.328125 8.390625 -10.328125 Z M 8.390625 -10.328125 "/></g></g></g><g fill="#2f6690" fill-opacity="1"><g transform="translate(202.328876, 174.415419)"><g><path d="M 2.890625 0 L 2.890625 -41.5 L 11.4375 -41.5 L 11.4375 -22.140625 L 11.53125 -22.140625 C 13.75 -24.359375 16.113281 -25.46875 18.625 -25.46875 C 19.84375 -25.46875 21.054688 -25.304688 22.265625 -24.984375 C 23.472656 -24.671875 24.628906 -24.175781 25.734375 -23.5 C 26.847656 -22.820312 27.75 -21.863281 28.4375 -20.625 C 29.132812 -19.382812 29.484375 -17.945312 29.484375 -16.3125 L 29.484375 0 L 20.9375 0 L 20.9375 -14 C 20.9375 -15.28125 20.523438 -16.398438 19.703125 -17.359375 C 18.890625 -18.328125 17.820312 -18.8125 16.5 -18.8125 C 15.21875 -18.8125 14.050781 -18.3125 13 -17.3125 C 11.957031 -16.320312 11.4375 -15.21875 11.4375 -14 L 11.4375 0 Z M 2.890625 0 "/></g></g></g><g fill="#2f6690" fill-opacity="1"><g transform="translate(232.868497, 174.415419)"><g><path d="M 2.890625 0 L 2.890625 -24.75 L 11.4375 -24.75 L 11.4375 -21.1875 L 11.53125 -21.1875 C 11.59375 -21.3125 11.695312 -21.46875 11.84375 -21.65625 C 11.988281 -21.851562 12.300781 -22.191406 12.78125 -22.671875 C 13.269531 -23.160156 13.785156 -23.597656 14.328125 -23.984375 C 14.878906 -24.367188 15.585938 -24.710938 16.453125 -25.015625 C 17.316406 -25.316406 18.203125 -25.46875 19.109375 -25.46875 C 20.035156 -25.46875 20.945312 -25.335938 21.84375 -25.078125 C 22.75 -24.828125 23.410156 -24.570312 23.828125 -24.3125 L 24.515625 -23.9375 L 20.9375 -16.6875 C 19.875 -17.59375 18.394531 -18.046875 16.5 -18.046875 C 15.46875 -18.046875 14.582031 -17.816406 13.84375 -17.359375 C 13.101562 -16.910156 12.582031 -16.363281 12.28125 -15.71875 C 11.976562 -15.082031 11.757812 -14.535156 11.625 -14.078125 C 11.5 -13.628906 11.4375 -13.28125 11.4375 -13.03125 L 11.4375 0 Z M 2.890625 0 "/></g></g></g><g fill="#2f6690" fill-opacity="1"><g transform="translate(46.377872, 210.823376)"><g><path d="M 2.234375 -1.484375 C 1.109375 -2.722656 0.546875 -4.238281 0.546875 -6.03125 C 0.546875 -7.832031 1.109375 -9.351562 2.234375 -10.59375 C 3.367188 -11.832031 4.8125 -12.453125 6.5625 -12.453125 C 8.164062 -12.453125 9.484375 -11.953125 10.515625 -10.953125 L 10.515625 -12.109375 L 14.703125 -12.109375 L 14.703125 0 L 10.5625 0 L 10.5625 -1.375 L 10.515625 -1.375 C 9.484375 -0.21875 8.164062 0.359375 6.5625 0.359375 C 4.8125 0.359375 3.367188 -0.253906 2.234375 -1.484375 Z M 5.796875 -8.09375 C 5.253906 -7.5625 4.984375 -6.878906 4.984375 -6.046875 C 4.984375 -5.210938 5.238281 -4.53125 5.75 -4 C 6.269531 -3.46875 6.957031 -3.203125 7.8125 -3.203125 C 8.625 -3.203125 9.289062 -3.46875 9.8125 -4 C 10.34375 -4.539062 10.609375 -5.222656 10.609375 -6.046875 C 10.609375 -6.878906 10.335938 -7.5625 9.796875 -8.09375 C 9.253906 -8.625 8.59375 -8.890625 7.8125 -8.890625 C 7.007812 -8.890625 6.335938 -8.625 5.796875 -8.09375 Z M 5.796875 -8.09375 "/></g></g></g><g fill="#2f6690" fill-opacity="1"><g transform="translate(61.832578, 210.823376)"><g><path d="M 0.875 2.96875 L 4.296875 1.296875 C 4.921875 2.335938 6.015625 2.859375 7.578125 2.859375 C 8.296875 2.859375 8.960938 2.625 9.578125 2.15625 C 10.203125 1.695312 10.515625 0.988281 10.515625 0.03125 L 10.515625 -0.875 C 9.773438 -0.0507812 8.457031 0.359375 6.5625 0.359375 C 4.8125 0.359375 3.367188 -0.253906 2.234375 -1.484375 C 1.109375 -2.722656 0.546875 -4.238281 0.546875 -6.03125 C 0.546875 -7.832031 1.109375 -9.351562 2.234375 -10.59375 C 3.367188 -11.832031 4.8125 -12.453125 6.5625 -12.453125 C 8.113281 -12.453125 9.410156 -11.972656 10.453125 -11.015625 L 10.515625 -11.015625 L 10.515625 -12.109375 L 14.703125 -12.109375 L 14.703125 0.328125 C 14.703125 2.296875 14.046875 3.8125 12.734375 4.875 C 11.429688 5.945312 9.710938 6.484375 7.578125 6.484375 C 4.117188 6.484375 1.882812 5.3125 0.875 2.96875 Z M 5.796875 -8.09375 C 5.253906 -7.5625 4.984375 -6.878906 4.984375 -6.046875 C 4.984375 -5.210938 5.238281 -4.53125 5.75 -4 C 6.269531 -3.46875 6.957031 -3.203125 7.8125 -3.203125 C 8.625 -3.203125 9.289062 -3.46875 9.8125 -4 C 10.34375 -4.539062 10.609375 -5.222656 10.609375 -6.046875 C 10.609375 -6.878906 10.335938 -7.5625 9.796875 -8.09375 C 9.253906 -8.625 8.59375 -8.890625 7.8125 -8.890625 C 7.007812 -8.890625 6.335938 -8.625 5.796875 -8.09375 Z M 5.796875 -8.09375 "/></g></g></g><g fill="#2f6690" fill-opacity="1"><g transform="translate(77.287285, 210.823376)"><g><path d="M 13.65625 -5.46875 L 4.890625 -5.46875 C 4.890625 -4.625 5.160156 -3.992188 5.703125 -3.578125 C 6.253906 -3.171875 6.851562 -2.96875 7.5 -2.96875 C 8.175781 -2.96875 8.710938 -3.054688 9.109375 -3.234375 C 9.503906 -3.421875 9.953125 -3.78125 10.453125 -4.3125 L 13.46875 -2.8125 C 12.207031 -0.695312 10.117188 0.359375 7.203125 0.359375 C 5.367188 0.359375 3.800781 -0.265625 2.5 -1.515625 C 1.195312 -2.765625 0.546875 -4.269531 0.546875 -6.03125 C 0.546875 -7.800781 1.195312 -9.3125 2.5 -10.5625 C 3.800781 -11.820312 5.367188 -12.453125 7.203125 -12.453125 C 9.117188 -12.453125 10.675781 -11.894531 11.875 -10.78125 C 13.082031 -9.675781 13.6875 -8.097656 13.6875 -6.046875 C 13.6875 -5.753906 13.675781 -5.5625 13.65625 -5.46875 Z M 5 -7.78125 L 9.609375 -7.78125 C 9.515625 -8.414062 9.265625 -8.898438 8.859375 -9.234375 C 8.453125 -9.578125 7.9375 -9.75 7.3125 -9.75 C 6.625 -9.75 6.070312 -9.566406 5.65625 -9.203125 C 5.25 -8.835938 5.03125 -8.363281 5 -7.78125 Z M 5 -7.78125 "/></g></g></g><g fill="#2f6690" fill-opacity="1"><g transform="translate(90.854383, 210.823376)"><g><path d="M 1.421875 0 L 1.421875 -12.109375 L 5.59375 -12.109375 L 5.59375 -10.828125 L 5.640625 -10.828125 C 6.722656 -11.910156 7.878906 -12.453125 9.109375 -12.453125 C 9.703125 -12.453125 10.289062 -12.375 10.875 -12.21875 C 11.46875 -12.0625 12.035156 -11.816406 12.578125 -11.484375 C 13.128906 -11.160156 13.570312 -10.691406 13.90625 -10.078125 C 14.25 -9.472656 14.421875 -8.769531 14.421875 -7.96875 L 14.421875 0 L 10.234375 0 L 10.234375 -6.84375 C 10.234375 -7.46875 10.03125 -8.015625 9.625 -8.484375 C 9.226562 -8.960938 8.707031 -9.203125 8.0625 -9.203125 C 7.4375 -9.203125 6.867188 -8.957031 6.359375 -8.46875 C 5.847656 -7.976562 5.59375 -7.4375 5.59375 -6.84375 L 5.59375 0 Z M 1.421875 0 "/></g></g></g><g fill="#2f6690" fill-opacity="1"><g transform="translate(105.789996, 210.823376)"><g><path d="M 7.859375 -9.03125 C 7.066406 -9.03125 6.390625 -8.738281 5.828125 -8.15625 C 5.265625 -7.582031 4.984375 -6.882812 4.984375 -6.0625 C 4.984375 -5.226562 5.265625 -4.519531 5.828125 -3.9375 C 6.390625 -3.351562 7.066406 -3.0625 7.859375 -3.0625 C 8.234375 -3.0625 8.585938 -3.109375 8.921875 -3.203125 C 9.265625 -3.296875 9.515625 -3.390625 9.671875 -3.484375 L 9.890625 -3.640625 L 11.296875 -0.734375 C 11.191406 -0.648438 11.039062 -0.550781 10.84375 -0.4375 C 10.644531 -0.320312 10.195312 -0.160156 9.5 0.046875 C 8.800781 0.253906 8.050781 0.359375 7.25 0.359375 C 5.46875 0.359375 3.90625 -0.265625 2.5625 -1.515625 C 1.21875 -2.765625 0.546875 -4.265625 0.546875 -6.015625 C 0.546875 -7.773438 1.21875 -9.285156 2.5625 -10.546875 C 3.90625 -11.816406 5.46875 -12.453125 7.25 -12.453125 C 8.050781 -12.453125 8.785156 -12.359375 9.453125 -12.171875 C 10.128906 -11.984375 10.613281 -11.796875 10.90625 -11.609375 L 11.296875 -11.328125 L 9.890625 -8.46875 C 9.367188 -8.84375 8.691406 -9.03125 7.859375 -9.03125 Z M 7.859375 -9.03125 "/></g></g></g><g fill="#2f6690" fill-opacity="1"><g transform="translate(116.714442, 210.823376)"><g><path d="M 1.8125 -18.84375 C 2.300781 -19.332031 2.882812 -19.578125 3.5625 -19.578125 C 4.238281 -19.578125 4.820312 -19.332031 5.3125 -18.84375 C 5.800781 -18.363281 6.046875 -17.785156 6.046875 -17.109375 C 6.046875 -16.429688 5.800781 -15.847656 5.3125 -15.359375 C 4.820312 -14.867188 4.238281 -14.625 3.5625 -14.625 C 2.882812 -14.625 2.300781 -14.867188 1.8125 -15.359375 C 1.320312 -15.847656 1.078125 -16.429688 1.078125 -17.109375 C 1.078125 -17.785156 1.320312 -18.363281 1.8125 -18.84375 Z M 1.421875 -12.109375 L 1.421875 0 L 5.59375 0 L 5.59375 -12.109375 Z M 1.421875 -12.109375 "/></g></g></g><g fill="#2f6690" fill-opacity="1"><g transform="translate(123.179409, 210.823376)"><g><path d="M 1.8125 -18.84375 C 2.300781 -19.332031 2.882812 -19.578125 3.5625 -19.578125 C 4.238281 -19.578125 4.820312 -19.332031 5.3125 -18.84375 C 5.800781 -18.363281 6.046875 -17.785156 6.046875 -17.109375 C 6.046875 -16.429688 5.800781 -15.847656 5.3125 -15.359375 C 4.820312 -14.867188 4.238281 -14.625 3.5625 -14.625 C 2.882812 -14.625 2.300781 -14.867188 1.8125 -15.359375 C 1.320312 -15.847656 1.078125 -16.429688 1.078125 -17.109375 C 1.078125 -17.785156 1.320312 -18.363281 1.8125 -18.84375 Z M 1.421875 -12.109375 L 1.421875 1.0625 C 1.421875 2.164062 1.035156 2.71875 0.265625 2.71875 C 0.109375 2.71875 -0.0546875 2.6875 -0.234375 2.625 C -0.410156 2.570312 -0.550781 2.515625 -0.65625 2.453125 L -0.796875 2.359375 L -2.09375 5.734375 C -2.0625 5.742188 -1.957031 5.789062 -1.78125 5.875 C -1.613281 5.957031 -1.488281 6.015625 -1.40625 6.046875 C -1.320312 6.085938 -1.175781 6.140625 -0.96875 6.203125 C -0.757812 6.265625 -0.5625 6.3125 -0.375 6.34375 C -0.1875 6.375 0.046875 6.40625 0.328125 6.4375 C 0.609375 6.46875 0.910156 6.484375 1.234375 6.484375 C 2.015625 6.484375 2.703125 6.34375 3.296875 6.0625 C 3.898438 5.789062 4.359375 5.421875 4.671875 4.953125 C 4.984375 4.492188 5.210938 4.007812 5.359375 3.5 C 5.515625 2.988281 5.59375 2.441406 5.59375 1.859375 L 5.59375 -12.109375 Z M 1.421875 -12.109375 "/></g></g></g><g fill="#2f6690" fill-opacity="1"><g transform="translate(129.526401, 210.823376)"><g><path d="M 2.234375 -1.484375 C 1.109375 -2.722656 0.546875 -4.238281 0.546875 -6.03125 C 0.546875 -7.832031 1.109375 -9.351562 2.234375 -10.59375 C 3.367188 -11.832031 4.8125 -12.453125 6.5625 -12.453125 C 8.164062 -12.453125 9.484375 -11.953125 10.515625 -10.953125 L 10.515625 -12.109375 L 14.703125 -12.109375 L 14.703125 0 L 10.5625 0 L 10.5625 -1.375 L 10.515625 -1.375 C 9.484375 -0.21875 8.164062 0.359375 6.5625 0.359375 C 4.8125 0.359375 3.367188 -0.253906 2.234375 -1.484375 Z M 5.796875 -8.09375 C 5.253906 -7.5625 4.984375 -6.878906 4.984375 -6.046875 C 4.984375 -5.210938 5.238281 -4.53125 5.75 -4 C 6.269531 -3.46875 6.957031 -3.203125 7.8125 -3.203125 C 8.625 -3.203125 9.289062 -3.46875 9.8125 -4 C 10.34375 -4.539062 10.609375 -5.222656 10.609375 -6.046875 C 10.609375 -6.878906 10.335938 -7.5625 9.796875 -8.09375 C 9.253906 -8.625 8.59375 -8.890625 7.8125 -8.890625 C 7.007812 -8.890625 6.335938 -8.625 5.796875 -8.09375 Z M 5.796875 -8.09375 "/></g></g></g><g fill="#2f6690" fill-opacity="1"><g transform="translate(144.981107, 210.823376)"><g/></g></g><g fill="#2f6690" fill-opacity="1"><g transform="translate(150.761819, 210.823376)"><g><path d="M 13.125 -12.109375 L 7.125 -3.1875 L 12.640625 -3.1875 L 12.640625 0 L 0.125 0 L 6.109375 -8.921875 L 1.109375 -8.921875 L 1.109375 -12.109375 Z M 13.125 -12.109375 "/></g></g></g><g fill="#2f6690" fill-opacity="1"><g transform="translate(163.337923, 210.823376)"><g><path d="M 2.234375 -1.484375 C 1.109375 -2.722656 0.546875 -4.238281 0.546875 -6.03125 C 0.546875 -7.832031 1.109375 -9.351562 2.234375 -10.59375 C 3.367188 -11.832031 4.8125 -12.453125 6.5625 -12.453125 C 8.164062 -12.453125 9.484375 -11.953125 10.515625 -10.953125 L 10.515625 -12.109375 L 14.703125 -12.109375 L 14.703125 0 L 10.5625 0 L 10.5625 -1.375 L 10.515625 -1.375 C 9.484375 -0.21875 8.164062 0.359375 6.5625 0.359375 C 4.8125 0.359375 3.367188 -0.253906 2.234375 -1.484375 Z M 5.796875 -8.09375 C 5.253906 -7.5625 4.984375 -6.878906 4.984375 -6.046875 C 4.984375 -5.210938 5.238281 -4.53125 5.75 -4 C 6.269531 -3.46875 6.957031 -3.203125 7.8125 -3.203125 C 8.625 -3.203125 9.289062 -3.46875 9.8125 -4 C 10.34375 -4.539062 10.609375 -5.222656 10.609375 -6.046875 C 10.609375 -6.878906 10.335938 -7.5625 9.796875 -8.09375 C 9.253906 -8.625 8.59375 -8.890625 7.8125 -8.890625 C 7.007812 -8.890625 6.335938 -8.625 5.796875 -8.09375 Z M 5.796875 -8.09375 "/></g></g></g><g fill="#2f6690" fill-opacity="1"><g transform="translate(178.792624, 210.823376)"><g/></g></g><g fill="#2f6690" fill-opacity="1"><g transform="translate(184.573336, 210.823376)"><g><path d="M 1.421875 0 L 1.421875 -12.109375 L 5.59375 -12.109375 L 5.59375 -10.828125 L 5.640625 -10.828125 C 6.722656 -11.910156 7.878906 -12.453125 9.109375 -12.453125 C 9.984375 -12.453125 10.804688 -12.269531 11.578125 -11.90625 C 12.347656 -11.550781 12.929688 -10.992188 13.328125 -10.234375 C 14.554688 -11.710938 15.894531 -12.453125 17.34375 -12.453125 C 18.632812 -12.453125 19.742188 -12.085938 20.671875 -11.359375 C 21.597656 -10.640625 22.0625 -9.507812 22.0625 -7.96875 L 22.0625 0 L 17.890625 0 L 17.890625 -6.84375 C 17.890625 -7.488281 17.710938 -8.023438 17.359375 -8.453125 C 17.003906 -8.890625 16.472656 -9.109375 15.765625 -9.109375 C 15.148438 -9.109375 14.679688 -8.921875 14.359375 -8.546875 C 14.035156 -8.179688 13.859375 -7.738281 13.828125 -7.21875 L 13.828125 0 L 9.65625 0 L 9.65625 -6.84375 C 9.65625 -7.488281 9.476562 -8.023438 9.125 -8.453125 C 8.769531 -8.890625 8.238281 -9.109375 7.53125 -9.109375 C 6.882812 -9.109375 6.398438 -8.90625 6.078125 -8.5 C 5.753906 -8.101562 5.59375 -7.628906 5.59375 -7.078125 L 5.59375 0 Z M 1.421875 0 "/></g></g></g><g fill="#2f6690" fill-opacity="1"><g transform="translate(207.153764, 210.823376)"><g><path d="M 2.234375 -1.484375 C 1.109375 -2.722656 0.546875 -4.238281 0.546875 -6.03125 C 0.546875 -7.832031 1.109375 -9.351562 2.234375 -10.59375 C 3.367188 -11.832031 4.8125 -12.453125 6.5625 -12.453125 C 8.164062 -12.453125 9.484375 -11.953125 10.515625 -10.953125 L 10.515625 -12.109375 L 14.703125 -12.109375 L 14.703125 0 L 10.5625 0 L 10.5625 -1.375 L 10.515625 -1.375 C 9.484375 -0.21875 8.164062 0.359375 6.5625 0.359375 C 4.8125 0.359375 3.367188 -0.253906 2.234375 -1.484375 Z M 5.796875 -8.09375 C 5.253906 -7.5625 4.984375 -6.878906 4.984375 -6.046875 C 4.984375 -5.210938 5.238281 -4.53125 5.75 -4 C 6.269531 -3.46875 6.957031 -3.203125 7.8125 -3.203125 C 8.625 -3.203125 9.289062 -3.46875 9.8125 -4 C 10.34375 -4.539062 10.609375 -5.222656 10.609375 -6.046875 C 10.609375 -6.878906 10.335938 -7.5625 9.796875 -8.09375 C 9.253906 -8.625 8.59375 -8.890625 7.8125 -8.890625 C 7.007812 -8.890625 6.335938 -8.625 5.796875 -8.09375 Z M 5.796875 -8.09375 "/></g></g></g><g fill="#2f6690" fill-opacity="1"><g transform="translate(222.608476, 210.823376)"><g><path d="M 1.421875 0 L 1.421875 -12.109375 L 5.59375 -12.109375 L 5.59375 -10.359375 L 5.640625 -10.359375 C 5.671875 -10.421875 5.71875 -10.5 5.78125 -10.59375 C 5.851562 -10.6875 6.007812 -10.847656 6.25 -11.078125 C 6.488281 -11.316406 6.738281 -11.53125 7 -11.71875 C 7.269531 -11.914062 7.617188 -12.085938 8.046875 -12.234375 C 8.472656 -12.378906 8.90625 -12.453125 9.34375 -12.453125 C 9.800781 -12.453125 10.25 -12.390625 10.6875 -12.265625 C 11.125 -12.140625 11.445312 -12.015625 11.65625 -11.890625 L 11.984375 -11.703125 L 10.234375 -8.15625 C 9.722656 -8.601562 9 -8.828125 8.0625 -8.828125 C 7.5625 -8.828125 7.128906 -8.710938 6.765625 -8.484375 C 6.410156 -8.265625 6.15625 -8 6 -7.6875 C 5.851562 -7.375 5.75 -7.109375 5.6875 -6.890625 C 5.625 -6.671875 5.59375 -6.5 5.59375 -6.375 L 5.59375 0 Z M 1.421875 0 "/></g></g></g><g fill="#2f6690" fill-opacity="1"><g transform="translate(233.698089, 210.823376)"><g><path d="M 15.234375 -12.109375 L 9.484375 -6.328125 L 15.8125 0 L 10.421875 0 L 5.59375 -4.84375 L 5.59375 0 L 1.421875 0 L 1.421875 -20.296875 L 5.59375 -20.296875 L 5.59375 -7.875 L 9.8125 -12.109375 Z M 15.234375 -12.109375 "/></g></g></g><g fill="#2f6690" fill-opacity="1"><g transform="translate(248.279777, 210.823376)"><g><path d="M 13.65625 -5.46875 L 4.890625 -5.46875 C 4.890625 -4.625 5.160156 -3.992188 5.703125 -3.578125 C 6.253906 -3.171875 6.851562 -2.96875 7.5 -2.96875 C 8.175781 -2.96875 8.710938 -3.054688 9.109375 -3.234375 C 9.503906 -3.421875 9.953125 -3.78125 10.453125 -4.3125 L 13.46875 -2.8125 C 12.207031 -0.695312 10.117188 0.359375 7.203125 0.359375 C 5.367188 0.359375 3.800781 -0.265625 2.5 -1.515625 C 1.195312 -2.765625 0.546875 -4.269531 0.546875 -6.03125 C 0.546875 -7.800781 1.195312 -9.3125 2.5 -10.5625 C 3.800781 -11.820312 5.367188 -12.453125 7.203125 -12.453125 C 9.117188 -12.453125 10.675781 -11.894531 11.875 -10.78125 C 13.082031 -9.675781 13.6875 -8.097656 13.6875 -6.046875 C 13.6875 -5.753906 13.675781 -5.5625 13.65625 -5.46875 Z M 5 -7.78125 L 9.609375 -7.78125 C 9.515625 -8.414062 9.265625 -8.898438 8.859375 -9.234375 C 8.453125 -9.578125 7.9375 -9.75 7.3125 -9.75 C 6.625 -9.75 6.070312 -9.566406 5.65625 -9.203125 C 5.25 -8.835938 5.03125 -8.363281 5 -7.78125 Z M 5 -7.78125 "/></g></g></g><g fill="#2f6690" fill-opacity="1"><g transform="translate(261.846875, 210.823376)"><g><path d="M 2.125 -12.109375 L 2.125 -16.609375 L 6.296875 -16.609375 L 6.296875 -12.109375 L 8.84375 -12.109375 L 8.84375 -8.921875 L 6.296875 -8.921875 L 6.296875 -5.078125 C 6.296875 -3.953125 6.613281 -3.390625 7.25 -3.390625 C 7.40625 -3.390625 7.566406 -3.421875 7.734375 -3.484375 C 7.910156 -3.554688 8.046875 -3.625 8.140625 -3.6875 L 8.28125 -3.78125 L 9.3125 -0.40625 C 8.414062 0.101562 7.394531 0.359375 6.25 0.359375 C 5.46875 0.359375 4.789062 0.222656 4.21875 -0.046875 C 3.65625 -0.328125 3.226562 -0.695312 2.9375 -1.15625 C 2.644531 -1.625 2.4375 -2.113281 2.3125 -2.625 C 2.1875 -3.132812 2.125 -3.679688 2.125 -4.265625 L 2.125 -8.921875 L 0.375 -8.921875 L 0.375 -12.109375 Z M 2.125 -12.109375 "/></g></g></g><g fill="#2f6690" fill-opacity="1"><g transform="translate(270.506195, 210.823376)"><g><path d="M 1.8125 -18.84375 C 2.300781 -19.332031 2.882812 -19.578125 3.5625 -19.578125 C 4.238281 -19.578125 4.820312 -19.332031 5.3125 -18.84375 C 5.800781 -18.363281 6.046875 -17.785156 6.046875 -17.109375 C 6.046875 -16.429688 5.800781 -15.847656 5.3125 -15.359375 C 4.820312 -14.867188 4.238281 -14.625 3.5625 -14.625 C 2.882812 -14.625 2.300781 -14.867188 1.8125 -15.359375 C 1.320312 -15.847656 1.078125 -16.429688 1.078125 -17.109375 C 1.078125 -17.785156 1.320312 -18.363281 1.8125 -18.84375 Z M 1.421875 -12.109375 L 1.421875 0 L 5.59375 0 L 5.59375 -12.109375 Z M 1.421875 -12.109375 "/></g></g></g><g fill="#2f6690" fill-opacity="1"><g transform="translate(276.971162, 210.823376)"><g><path d="M 1.421875 0 L 1.421875 -12.109375 L 5.59375 -12.109375 L 5.59375 -10.828125 L 5.640625 -10.828125 C 6.722656 -11.910156 7.878906 -12.453125 9.109375 -12.453125 C 9.703125 -12.453125 10.289062 -12.375 10.875 -12.21875 C 11.46875 -12.0625 12.035156 -11.816406 12.578125 -11.484375 C 13.128906 -11.160156 13.570312 -10.691406 13.90625 -10.078125 C 14.25 -9.472656 14.421875 -8.769531 14.421875 -7.96875 L 14.421875 0 L 10.234375 0 L 10.234375 -6.84375 C 10.234375 -7.46875 10.03125 -8.015625 9.625 -8.484375 C 9.226562 -8.960938 8.707031 -9.203125 8.0625 -9.203125 C 7.4375 -9.203125 6.867188 -8.957031 6.359375 -8.46875 C 5.847656 -7.976562 5.59375 -7.4375 5.59375 -6.84375 L 5.59375 0 Z M 1.421875 0 "/></g></g></g><g fill="#2f6690" fill-opacity="1"><g transform="translate(291.90677, 210.823376)"><g><path d="M 0.875 2.96875 L 4.296875 1.296875 C 4.921875 2.335938 6.015625 2.859375 7.578125 2.859375 C 8.296875 2.859375 8.960938 2.625 9.578125 2.15625 C 10.203125 1.695312 10.515625 0.988281 10.515625 0.03125 L 10.515625 -0.875 C 9.773438 -0.0507812 8.457031 0.359375 6.5625 0.359375 C 4.8125 0.359375 3.367188 -0.253906 2.234375 -1.484375 C 1.109375 -2.722656 0.546875 -4.238281 0.546875 -6.03125 C 0.546875 -7.832031 1.109375 -9.351562 2.234375 -10.59375 C 3.367188 -11.832031 4.8125 -12.453125 6.5625 -12.453125 C 8.113281 -12.453125 9.410156 -11.972656 10.453125 -11.015625 L 10.515625 -11.015625 L 10.515625 -12.109375 L 14.703125 -12.109375 L 14.703125 0.328125 C 14.703125 2.296875 14.046875 3.8125 12.734375 4.875 C 11.429688 5.945312 9.710938 6.484375 7.578125 6.484375 C 4.117188 6.484375 1.882812 5.3125 0.875 2.96875 Z M 5.796875 -8.09375 C 5.253906 -7.5625 4.984375 -6.878906 4.984375 -6.046875 C 4.984375 -5.210938 5.238281 -4.53125 5.75 -4 C 6.269531 -3.46875 6.957031 -3.203125 7.8125 -3.203125 C 8.625 -3.203125 9.289062 -3.46875 9.8125 -4 C 10.34375 -4.539062 10.609375 -5.222656 10.609375 -6.046875 C 10.609375 -6.878906 10.335938 -7.5625 9.796875 -8.09375 C 9.253906 -8.625 8.59375 -8.890625 7.8125 -8.890625 C 7.007812 -8.890625 6.335938 -8.625 5.796875 -8.09375 Z M 5.796875 -8.09375 "/></g></g></g><g fill="#2f6690" fill-opacity="1"><g transform="translate(307.361471, 210.823376)"><g/></g></g><g fill="#2f6690" fill-opacity="1"><g transform="translate(313.142195, 210.823376)"><g><path d="M 5.359375 -12.109375 L 5.359375 -6.34375 C 5.359375 -5.144531 5.535156 -4.296875 5.890625 -3.796875 C 6.253906 -3.296875 6.867188 -3.046875 7.734375 -3.046875 C 8.597656 -3.046875 9.210938 -3.296875 9.578125 -3.796875 C 9.941406 -4.296875 10.125 -5.144531 10.125 -6.34375 L 10.125 -12.109375 L 14.296875 -12.109375 L 14.296875 -5.328125 C 14.296875 -3.316406 13.769531 -1.863281 12.71875 -0.96875 C 11.675781 -0.0820312 10.015625 0.359375 7.734375 0.359375 C 5.453125 0.359375 3.785156 -0.0820312 2.734375 -0.96875 C 1.691406 -1.863281 1.171875 -3.316406 1.171875 -5.328125 L 1.171875 -12.109375 Z M 5.359375 -12.109375 "/></g></g></g><g fill="#2f6690" fill-opacity="1"><g transform="translate(55.232476, 234.298108)"><g><path d="M 2.125 -12.109375 L 2.125 -16.609375 L 6.296875 -16.609375 L 6.296875 -12.109375 L 8.84375 -12.109375 L 8.84375 -8.921875 L 6.296875 -8.921875 L 6.296875 -5.078125 C 6.296875 -3.953125 6.613281 -3.390625 7.25 -3.390625 C 7.40625 -3.390625 7.566406 -3.421875 7.734375 -3.484375 C 7.910156 -3.554688 8.046875 -3.625 8.140625 -3.6875 L 8.28125 -3.78125 L 9.3125 -0.40625 C 8.414062 0.101562 7.394531 0.359375 6.25 0.359375 C 5.46875 0.359375 4.789062 0.222656 4.21875 -0.046875 C 3.65625 -0.328125 3.226562 -0.695312 2.9375 -1.15625 C 2.644531 -1.625 2.4375 -2.113281 2.3125 -2.625 C 2.1875 -3.132812 2.125 -3.679688 2.125 -4.265625 L 2.125 -8.921875 L 0.375 -8.921875 L 0.375 -12.109375 Z M 2.125 -12.109375 "/></g></g></g><g fill="#2f6690" fill-opacity="1"><g transform="translate(63.891792, 234.298108)"><g><path d="M 5.359375 -12.109375 L 5.359375 -6.34375 C 5.359375 -5.144531 5.535156 -4.296875 5.890625 -3.796875 C 6.253906 -3.296875 6.867188 -3.046875 7.734375 -3.046875 C 8.597656 -3.046875 9.210938 -3.296875 9.578125 -3.796875 C 9.941406 -4.296875 10.125 -5.144531 10.125 -6.34375 L 10.125 -12.109375 L 14.296875 -12.109375 L 14.296875 -5.328125 C 14.296875 -3.316406 13.769531 -1.863281 12.71875 -0.96875 C 11.675781 -0.0820312 10.015625 0.359375 7.734375 0.359375 C 5.453125 0.359375 3.785156 -0.0820312 2.734375 -0.96875 C 1.691406 -1.863281 1.171875 -3.316406 1.171875 -5.328125 L 1.171875 -12.109375 Z M 5.359375 -12.109375 "/></g></g></g><g fill="#2f6690" fill-opacity="1"><g transform="translate(78.70943, 234.298108)"><g><path d="M 1.421875 0 L 1.421875 -12.109375 L 5.59375 -12.109375 L 5.59375 -10.359375 L 5.640625 -10.359375 C 5.671875 -10.421875 5.71875 -10.5 5.78125 -10.59375 C 5.851562 -10.6875 6.007812 -10.847656 6.25 -11.078125 C 6.488281 -11.316406 6.738281 -11.53125 7 -11.71875 C 7.269531 -11.914062 7.617188 -12.085938 8.046875 -12.234375 C 8.472656 -12.378906 8.90625 -12.453125 9.34375 -12.453125 C 9.800781 -12.453125 10.25 -12.390625 10.6875 -12.265625 C 11.125 -12.140625 11.445312 -12.015625 11.65625 -11.890625 L 11.984375 -11.703125 L 10.234375 -8.15625 C 9.722656 -8.601562 9 -8.828125 8.0625 -8.828125 C 7.5625 -8.828125 7.128906 -8.710938 6.765625 -8.484375 C 6.410156 -8.265625 6.15625 -8 6 -7.6875 C 5.851562 -7.375 5.75 -7.109375 5.6875 -6.890625 C 5.625 -6.671875 5.59375 -6.5 5.59375 -6.375 L 5.59375 0 Z M 1.421875 0 "/></g></g></g><g fill="#2f6690" fill-opacity="1"><g transform="translate(89.799043, 234.298108)"><g><path d="M 1.8125 -18.84375 C 2.300781 -19.332031 2.882812 -19.578125 3.5625 -19.578125 C 4.238281 -19.578125 4.820312 -19.332031 5.3125 -18.84375 C 5.800781 -18.363281 6.046875 -17.785156 6.046875 -17.109375 C 6.046875 -16.429688 5.800781 -15.847656 5.3125 -15.359375 C 4.820312 -14.867188 4.238281 -14.625 3.5625 -14.625 C 2.882812 -14.625 2.300781 -14.867188 1.8125 -15.359375 C 1.320312 -15.847656 1.078125 -16.429688 1.078125 -17.109375 C 1.078125 -17.785156 1.320312 -18.363281 1.8125 -18.84375 Z M 1.421875 -12.109375 L 1.421875 0 L 5.59375 0 L 5.59375 -12.109375 Z M 1.421875 -12.109375 "/></g></g></g><g fill="#2f6690" fill-opacity="1"><g transform="translate(96.26401, 234.298108)"><g><path d="M 13.125 -12.109375 L 7.125 -3.1875 L 12.640625 -3.1875 L 12.640625 0 L 0.125 0 L 6.109375 -8.921875 L 1.109375 -8.921875 L 1.109375 -12.109375 Z M 13.125 -12.109375 "/></g></g></g><g fill="#2f6690" fill-opacity="1"><g transform="translate(108.840114, 234.298108)"><g><path d="M 1.421875 0 L 1.421875 -12.109375 L 5.59375 -12.109375 L 5.59375 -10.828125 L 5.640625 -10.828125 C 6.722656 -11.910156 7.878906 -12.453125 9.109375 -12.453125 C 9.984375 -12.453125 10.804688 -12.269531 11.578125 -11.90625 C 12.347656 -11.550781 12.929688 -10.992188 13.328125 -10.234375 C 14.554688 -11.710938 15.894531 -12.453125 17.34375 -12.453125 C 18.632812 -12.453125 19.742188 -12.085938 20.671875 -11.359375 C 21.597656 -10.640625 22.0625 -9.507812 22.0625 -7.96875 L 22.0625 0 L 17.890625 0 L 17.890625 -6.84375 C 17.890625 -7.488281 17.710938 -8.023438 17.359375 -8.453125 C 17.003906 -8.890625 16.472656 -9.109375 15.765625 -9.109375 C 15.148438 -9.109375 14.679688 -8.921875 14.359375 -8.546875 C 14.035156 -8.179688 13.859375 -7.738281 13.828125 -7.21875 L 13.828125 0 L 9.65625 0 L 9.65625 -6.84375 C 9.65625 -7.488281 9.476562 -8.023438 9.125 -8.453125 C 8.769531 -8.890625 8.238281 -9.109375 7.53125 -9.109375 C 6.882812 -9.109375 6.398438 -8.90625 6.078125 -8.5 C 5.753906 -8.101562 5.59375 -7.628906 5.59375 -7.078125 L 5.59375 0 Z M 1.421875 0 "/></g></g></g><g fill="#2f6690" fill-opacity="1"><g transform="translate(131.420542, 234.298108)"><g><path d="M 5.359375 -12.109375 L 5.359375 -6.34375 C 5.359375 -5.144531 5.535156 -4.296875 5.890625 -3.796875 C 6.253906 -3.296875 6.867188 -3.046875 7.734375 -3.046875 C 8.597656 -3.046875 9.210938 -3.296875 9.578125 -3.796875 C 9.941406 -4.296875 10.125 -5.144531 10.125 -6.34375 L 10.125 -12.109375 L 14.296875 -12.109375 L 14.296875 -5.328125 C 14.296875 -3.316406 13.769531 -1.863281 12.71875 -0.96875 C 11.675781 -0.0820312 10.015625 0.359375 7.734375 0.359375 C 5.453125 0.359375 3.785156 -0.0820312 2.734375 -0.96875 C 1.691406 -1.863281 1.171875 -3.316406 1.171875 -5.328125 L 1.171875 -12.109375 Z M 5.359375 -12.109375 "/></g></g></g><g fill="#2f6690" fill-opacity="1"><g transform="translate(146.23818, 234.298108)"><g/></g></g><g fill="#2f6690" fill-opacity="1"><g transform="translate(152.018898, 234.298108)"><g><path d="M 1.8125 -18.84375 C 2.300781 -19.332031 2.882812 -19.578125 3.5625 -19.578125 C 4.238281 -19.578125 4.820312 -19.332031 5.3125 -18.84375 C 5.800781 -18.363281 6.046875 -17.785156 6.046875 -17.109375 C 6.046875 -16.429688 5.800781 -15.847656 5.3125 -15.359375 C 4.820312 -14.867188 4.238281 -14.625 3.5625 -14.625 C 2.882812 -14.625 2.300781 -14.867188 1.8125 -15.359375 C 1.320312 -15.847656 1.078125 -16.429688 1.078125 -17.109375 C 1.078125 -17.785156 1.320312 -18.363281 1.8125 -18.84375 Z M 1.421875 -12.109375 L 1.421875 0 L 5.59375 0 L 5.59375 -12.109375 Z M 1.421875 -12.109375 "/></g></g></g><g fill="#2f6690" fill-opacity="1"><g transform="translate(158.483865, 234.298108)"><g/></g></g><g fill="#2f6690" fill-opacity="1"><g transform="translate(164.264577, 234.298108)"><g><path d="M 5.359375 -12.109375 L 5.359375 -6.34375 C 5.359375 -5.144531 5.535156 -4.296875 5.890625 -3.796875 C 6.253906 -3.296875 6.867188 -3.046875 7.734375 -3.046875 C 8.597656 -3.046875 9.210938 -3.296875 9.578125 -3.796875 C 9.941406 -4.296875 10.125 -5.144531 10.125 -6.34375 L 10.125 -12.109375 L 14.296875 -12.109375 L 14.296875 -5.328125 C 14.296875 -3.316406 13.769531 -1.863281 12.71875 -0.96875 C 11.675781 -0.0820312 10.015625 0.359375 7.734375 0.359375 C 5.453125 0.359375 3.785156 -0.0820312 2.734375 -0.96875 C 1.691406 -1.863281 1.171875 -3.316406 1.171875 -5.328125 L 1.171875 -12.109375 Z M 5.359375 -12.109375 "/></g></g></g><g fill="#2f6690" fill-opacity="1"><g transform="translate(179.082215, 234.298108)"><g><path d="M 0.875 2.96875 L 4.296875 1.296875 C 4.921875 2.335938 6.015625 2.859375 7.578125 2.859375 C 8.296875 2.859375 8.960938 2.625 9.578125 2.15625 C 10.203125 1.695312 10.515625 0.988281 10.515625 0.03125 L 10.515625 -0.875 C 9.773438 -0.0507812 8.457031 0.359375 6.5625 0.359375 C 4.8125 0.359375 3.367188 -0.253906 2.234375 -1.484375 C 1.109375 -2.722656 0.546875 -4.238281 0.546875 -6.03125 C 0.546875 -7.832031 1.109375 -9.351562 2.234375 -10.59375 C 3.367188 -11.832031 4.8125 -12.453125 6.5625 -12.453125 C 8.113281 -12.453125 9.410156 -11.972656 10.453125 -11.015625 L 10.515625 -11.015625 L 10.515625 -12.109375 L 14.703125 -12.109375 L 14.703125 0.328125 C 14.703125 2.296875 14.046875 3.8125 12.734375 4.875 C 11.429688 5.945312 9.710938 6.484375 7.578125 6.484375 C 4.117188 6.484375 1.882812 5.3125 0.875 2.96875 Z M 5.796875 -8.09375 C 5.253906 -7.5625 4.984375 -6.878906 4.984375 -6.046875 C 4.984375 -5.210938 5.238281 -4.53125 5.75 -4 C 6.269531 -3.46875 6.957031 -3.203125 7.8125 -3.203125 C 8.625 -3.203125 9.289062 -3.46875 9.8125 -4 C 10.34375 -4.539062 10.609375 -5.222656 10.609375 -6.046875 C 10.609375 -6.878906 10.335938 -7.5625 9.796875 -8.09375 C 9.253906 -8.625 8.59375 -8.890625 7.8125 -8.890625 C 7.007812 -8.890625 6.335938 -8.625 5.796875 -8.09375 Z M 5.796875 -8.09375 "/></g></g></g><g fill="#2f6690" fill-opacity="1"><g transform="translate(194.536928, 234.298108)"><g><path d="M 2.5625 -1.4375 C 1.21875 -2.632812 0.546875 -4.164062 0.546875 -6.03125 C 0.546875 -7.90625 1.242188 -9.441406 2.640625 -10.640625 C 4.046875 -11.847656 5.773438 -12.453125 7.828125 -12.453125 C 9.859375 -12.453125 11.566406 -11.847656 12.953125 -10.640625 C 14.347656 -9.429688 15.046875 -7.894531 15.046875 -6.03125 C 15.046875 -4.175781 14.363281 -2.644531 13 -1.4375 C 11.644531 -0.238281 9.921875 0.359375 7.828125 0.359375 C 5.660156 0.359375 3.90625 -0.238281 2.5625 -1.4375 Z M 5.796875 -8.09375 C 5.253906 -7.5625 4.984375 -6.878906 4.984375 -6.046875 C 4.984375 -5.210938 5.238281 -4.53125 5.75 -4 C 6.269531 -3.46875 6.957031 -3.203125 7.8125 -3.203125 C 8.625 -3.203125 9.289062 -3.46875 9.8125 -4 C 10.34375 -4.539062 10.609375 -5.222656 10.609375 -6.046875 C 10.609375 -6.878906 10.335938 -7.5625 9.796875 -8.09375 C 9.253906 -8.625 8.59375 -8.890625 7.8125 -8.890625 C 7.007812 -8.890625 6.335938 -8.625 5.796875 -8.09375 Z M 5.796875 -8.09375 "/></g></g></g><g fill="#2f6690" fill-opacity="1"><g transform="translate(209.472535, 234.298108)"><g><path d="M 6.671875 -12.453125 C 7.367188 -12.453125 8.054688 -12.375 8.734375 -12.21875 C 9.410156 -12.0625 9.910156 -11.90625 10.234375 -11.75 L 10.734375 -11.515625 L 9.359375 -8.78125 C 8.421875 -9.28125 7.523438 -9.53125 6.671875 -9.53125 C 6.203125 -9.53125 5.867188 -9.476562 5.671875 -9.375 C 5.472656 -9.269531 5.375 -9.078125 5.375 -8.796875 C 5.375 -8.734375 5.378906 -8.671875 5.390625 -8.609375 C 5.410156 -8.546875 5.441406 -8.488281 5.484375 -8.4375 C 5.535156 -8.382812 5.582031 -8.335938 5.625 -8.296875 C 5.664062 -8.253906 5.734375 -8.207031 5.828125 -8.15625 C 5.921875 -8.113281 5.992188 -8.078125 6.046875 -8.046875 C 6.109375 -8.023438 6.203125 -7.988281 6.328125 -7.9375 C 6.453125 -7.894531 6.546875 -7.863281 6.609375 -7.84375 C 6.671875 -7.820312 6.773438 -7.785156 6.921875 -7.734375 C 7.078125 -7.691406 7.191406 -7.660156 7.265625 -7.640625 C 7.753906 -7.503906 8.175781 -7.347656 8.53125 -7.171875 C 8.894531 -6.992188 9.273438 -6.753906 9.671875 -6.453125 C 10.078125 -6.160156 10.390625 -5.785156 10.609375 -5.328125 C 10.835938 -4.867188 10.953125 -4.351562 10.953125 -3.78125 C 10.953125 -1.019531 9.039062 0.359375 5.21875 0.359375 C 4.351562 0.359375 3.53125 0.222656 2.75 -0.046875 C 1.96875 -0.316406 1.40625 -0.582031 1.0625 -0.84375 L 0.546875 -1.28125 L 2.234375 -4.125 C 2.367188 -4.019531 2.535156 -3.890625 2.734375 -3.734375 C 2.941406 -3.585938 3.3125 -3.382812 3.84375 -3.125 C 4.375 -2.863281 4.835938 -2.734375 5.234375 -2.734375 C 6.097656 -2.734375 6.53125 -3.023438 6.53125 -3.609375 C 6.53125 -3.878906 6.421875 -4.085938 6.203125 -4.234375 C 5.984375 -4.378906 5.609375 -4.546875 5.078125 -4.734375 C 4.554688 -4.929688 4.144531 -5.109375 3.84375 -5.265625 C 3.09375 -5.648438 2.492188 -6.09375 2.046875 -6.59375 C 1.609375 -7.09375 1.390625 -7.75 1.390625 -8.5625 C 1.390625 -9.789062 1.863281 -10.742188 2.8125 -11.421875 C 3.769531 -12.109375 5.054688 -12.453125 6.671875 -12.453125 Z M 6.671875 -12.453125 "/></g></g></g><g fill="#2f6690" fill-opacity="1"><g transform="translate(220.420582, 234.298108)"><g><path d="M 2.125 -12.109375 L 2.125 -16.609375 L 6.296875 -16.609375 L 6.296875 -12.109375 L 8.84375 -12.109375 L 8.84375 -8.921875 L 6.296875 -8.921875 L 6.296875 -5.078125 C 6.296875 -3.953125 6.613281 -3.390625 7.25 -3.390625 C 7.40625 -3.390625 7.566406 -3.421875 7.734375 -3.484375 C 7.910156 -3.554688 8.046875 -3.625 8.140625 -3.6875 L 8.28125 -3.78125 L 9.3125 -0.40625 C 8.414062 0.101562 7.394531 0.359375 6.25 0.359375 C 5.46875 0.359375 4.789062 0.222656 4.21875 -0.046875 C 3.65625 -0.328125 3.226562 -0.695312 2.9375 -1.15625 C 2.644531 -1.625 2.4375 -2.113281 2.3125 -2.625 C 2.1875 -3.132812 2.125 -3.679688 2.125 -4.265625 L 2.125 -8.921875 L 0.375 -8.921875 L 0.375 -12.109375 Z M 2.125 -12.109375 "/></g></g></g><g fill="#2f6690" fill-opacity="1"><g transform="translate(229.079903, 234.298108)"><g><path d="M 1.8125 -18.84375 C 2.300781 -19.332031 2.882812 -19.578125 3.5625 -19.578125 C 4.238281 -19.578125 4.820312 -19.332031 5.3125 -18.84375 C 5.800781 -18.363281 6.046875 -17.785156 6.046875 -17.109375 C 6.046875 -16.429688 5.800781 -15.847656 5.3125 -15.359375 C 4.820312 -14.867188 4.238281 -14.625 3.5625 -14.625 C 2.882812 -14.625 2.300781 -14.867188 1.8125 -15.359375 C 1.320312 -15.847656 1.078125 -16.429688 1.078125 -17.109375 C 1.078125 -17.785156 1.320312 -18.363281 1.8125 -18.84375 Z M 1.421875 -12.109375 L 1.421875 0 L 5.59375 0 L 5.59375 -12.109375 Z M 1.421875 -12.109375 "/></g></g></g><g fill="#2f6690" fill-opacity="1"><g transform="translate(235.54487, 234.298108)"><g><path d="M 2.125 -12.109375 L 2.125 -16.609375 L 6.296875 -16.609375 L 6.296875 -12.109375 L 8.84375 -12.109375 L 8.84375 -8.921875 L 6.296875 -8.921875 L 6.296875 -5.078125 C 6.296875 -3.953125 6.613281 -3.390625 7.25 -3.390625 C 7.40625 -3.390625 7.566406 -3.421875 7.734375 -3.484375 C 7.910156 -3.554688 8.046875 -3.625 8.140625 -3.6875 L 8.28125 -3.78125 L 9.3125 -0.40625 C 8.414062 0.101562 7.394531 0.359375 6.25 0.359375 C 5.46875 0.359375 4.789062 0.222656 4.21875 -0.046875 C 3.65625 -0.328125 3.226562 -0.695312 2.9375 -1.15625 C 2.644531 -1.625 2.4375 -2.113281 2.3125 -2.625 C 2.1875 -3.132812 2.125 -3.679688 2.125 -4.265625 L 2.125 -8.921875 L 0.375 -8.921875 L 0.375 -12.109375 Z M 2.125 -12.109375 "/></g></g></g><g fill="#2f6690" fill-opacity="1"><g transform="translate(244.204179, 234.298108)"><g><path d="M 13.65625 -5.46875 L 4.890625 -5.46875 C 4.890625 -4.625 5.160156 -3.992188 5.703125 -3.578125 C 6.253906 -3.171875 6.851562 -2.96875 7.5 -2.96875 C 8.175781 -2.96875 8.710938 -3.054688 9.109375 -3.234375 C 9.503906 -3.421875 9.953125 -3.78125 10.453125 -4.3125 L 13.46875 -2.8125 C 12.207031 -0.695312 10.117188 0.359375 7.203125 0.359375 C 5.367188 0.359375 3.800781 -0.265625 2.5 -1.515625 C 1.195312 -2.765625 0.546875 -4.269531 0.546875 -6.03125 C 0.546875 -7.800781 1.195312 -9.3125 2.5 -10.5625 C 3.800781 -11.820312 5.367188 -12.453125 7.203125 -12.453125 C 9.117188 -12.453125 10.675781 -11.894531 11.875 -10.78125 C 13.082031 -9.675781 13.6875 -8.097656 13.6875 -6.046875 C 13.6875 -5.753906 13.675781 -5.5625 13.65625 -5.46875 Z M 5 -7.78125 L 9.609375 -7.78125 C 9.515625 -8.414062 9.265625 -8.898438 8.859375 -9.234375 C 8.453125 -9.578125 7.9375 -9.75 7.3125 -9.75 C 6.625 -9.75 6.070312 -9.566406 5.65625 -9.203125 C 5.25 -8.835938 5.03125 -8.363281 5 -7.78125 Z M 5 -7.78125 "/></g></g></g><g fill="#2f6690" fill-opacity="1"><g transform="translate(257.771277, 234.298108)"><g><path d="M 1.421875 0 L 1.421875 -20.296875 L 5.59375 -20.296875 L 5.59375 0 Z M 1.421875 0 "/></g></g></g><g fill="#2f6690" fill-opacity="1"><g transform="translate(264.118263, 234.298108)"><g><path d="M 1.8125 -18.84375 C 2.300781 -19.332031 2.882812 -19.578125 3.5625 -19.578125 C 4.238281 -19.578125 4.820312 -19.332031 5.3125 -18.84375 C 5.800781 -18.363281 6.046875 -17.785156 6.046875 -17.109375 C 6.046875 -16.429688 5.800781 -15.847656 5.3125 -15.359375 C 4.820312 -14.867188 4.238281 -14.625 3.5625 -14.625 C 2.882812 -14.625 2.300781 -14.867188 1.8125 -15.359375 C 1.320312 -15.847656 1.078125 -16.429688 1.078125 -17.109375 C 1.078125 -17.785156 1.320312 -18.363281 1.8125 -18.84375 Z M 1.421875 -12.109375 L 1.421875 1.0625 C 1.421875 2.164062 1.035156 2.71875 0.265625 2.71875 C 0.109375 2.71875 -0.0546875 2.6875 -0.234375 2.625 C -0.410156 2.570312 -0.550781 2.515625 -0.65625 2.453125 L -0.796875 2.359375 L -2.09375 5.734375 C -2.0625 5.742188 -1.957031 5.789062 -1.78125 5.875 C -1.613281 5.957031 -1.488281 6.015625 -1.40625 6.046875 C -1.320312 6.085938 -1.175781 6.140625 -0.96875 6.203125 C -0.757812 6.265625 -0.5625 6.3125 -0.375 6.34375 C -0.1875 6.375 0.046875 6.40625 0.328125 6.4375 C 0.609375 6.46875 0.910156 6.484375 1.234375 6.484375 C 2.015625 6.484375 2.703125 6.34375 3.296875 6.0625 C 3.898438 5.789062 4.359375 5.421875 4.671875 4.953125 C 4.984375 4.492188 5.210938 4.007812 5.359375 3.5 C 5.515625 2.988281 5.59375 2.441406 5.59375 1.859375 L 5.59375 -12.109375 Z M 1.421875 -12.109375 "/></g></g></g><g fill="#2f6690" fill-opacity="1"><g transform="translate(270.465249, 234.298108)"><g><path d="M 6.671875 -12.453125 C 7.367188 -12.453125 8.054688 -12.375 8.734375 -12.21875 C 9.410156 -12.0625 9.910156 -11.90625 10.234375 -11.75 L 10.734375 -11.515625 L 9.359375 -8.78125 C 8.421875 -9.28125 7.523438 -9.53125 6.671875 -9.53125 C 6.203125 -9.53125 5.867188 -9.476562 5.671875 -9.375 C 5.472656 -9.269531 5.375 -9.078125 5.375 -8.796875 C 5.375 -8.734375 5.378906 -8.671875 5.390625 -8.609375 C 5.410156 -8.546875 5.441406 -8.488281 5.484375 -8.4375 C 5.535156 -8.382812 5.582031 -8.335938 5.625 -8.296875 C 5.664062 -8.253906 5.734375 -8.207031 5.828125 -8.15625 C 5.921875 -8.113281 5.992188 -8.078125 6.046875 -8.046875 C 6.109375 -8.023438 6.203125 -7.988281 6.328125 -7.9375 C 6.453125 -7.894531 6.546875 -7.863281 6.609375 -7.84375 C 6.671875 -7.820312 6.773438 -7.785156 6.921875 -7.734375 C 7.078125 -7.691406 7.191406 -7.660156 7.265625 -7.640625 C 7.753906 -7.503906 8.175781 -7.347656 8.53125 -7.171875 C 8.894531 -6.992188 9.273438 -6.753906 9.671875 -6.453125 C 10.078125 -6.160156 10.390625 -5.785156 10.609375 -5.328125 C 10.835938 -4.867188 10.953125 -4.351562 10.953125 -3.78125 C 10.953125 -1.019531 9.039062 0.359375 5.21875 0.359375 C 4.351562 0.359375 3.53125 0.222656 2.75 -0.046875 C 1.96875 -0.316406 1.40625 -0.582031 1.0625 -0.84375 L 0.546875 -1.28125 L 2.234375 -4.125 C 2.367188 -4.019531 2.535156 -3.890625 2.734375 -3.734375 C 2.941406 -3.585938 3.3125 -3.382812 3.84375 -3.125 C 4.375 -2.863281 4.835938 -2.734375 5.234375 -2.734375 C 6.097656 -2.734375 6.53125 -3.023438 6.53125 -3.609375 C 6.53125 -3.878906 6.421875 -4.085938 6.203125 -4.234375 C 5.984375 -4.378906 5.609375 -4.546875 5.078125 -4.734375 C 4.554688 -4.929688 4.144531 -5.109375 3.84375 -5.265625 C 3.09375 -5.648438 2.492188 -6.09375 2.046875 -6.59375 C 1.609375 -7.09375 1.390625 -7.75 1.390625 -8.5625 C 1.390625 -9.789062 1.863281 -10.742188 2.8125 -11.421875 C 3.769531 -12.109375 5.054688 -12.453125 6.671875 -12.453125 Z M 6.671875 -12.453125 "/></g></g></g><g fill="#2f6690" fill-opacity="1"><g transform="translate(281.413285, 234.298108)"><g><path d="M 2.125 -12.109375 L 2.125 -16.609375 L 6.296875 -16.609375 L 6.296875 -12.109375 L 8.84375 -12.109375 L 8.84375 -8.921875 L 6.296875 -8.921875 L 6.296875 -5.078125 C 6.296875 -3.953125 6.613281 -3.390625 7.25 -3.390625 C 7.40625 -3.390625 7.566406 -3.421875 7.734375 -3.484375 C 7.910156 -3.554688 8.046875 -3.625 8.140625 -3.6875 L 8.28125 -3.78125 L 9.3125 -0.40625 C 8.414062 0.101562 7.394531 0.359375 6.25 0.359375 C 5.46875 0.359375 4.789062 0.222656 4.21875 -0.046875 C 3.65625 -0.328125 3.226562 -0.695312 2.9375 -1.15625 C 2.644531 -1.625 2.4375 -2.113281 2.3125 -2.625 C 2.1875 -3.132812 2.125 -3.679688 2.125 -4.265625 L 2.125 -8.921875 L 0.375 -8.921875 L 0.375 -12.109375 Z M 2.125 -12.109375 "/></g></g></g><g fill="#2f6690" fill-opacity="1"><g transform="translate(290.072605, 234.298108)"><g><path d="M 4.484375 -12.109375 L 7.4375 -5.515625 L 10.375 -12.109375 L 15.328125 -12.109375 L 8.84375 0 L 6.015625 0 L -0.46875 -12.109375 Z M 4.484375 -12.109375 "/></g></g></g><g fill="#2f6690" fill-opacity="1"><g transform="translate(304.276777, 234.298108)"><g><path d="M 5.359375 -12.109375 L 5.359375 -6.34375 C 5.359375 -5.144531 5.535156 -4.296875 5.890625 -3.796875 C 6.253906 -3.296875 6.867188 -3.046875 7.734375 -3.046875 C 8.597656 -3.046875 9.210938 -3.296875 9.578125 -3.796875 C 9.941406 -4.296875 10.125 -5.144531 10.125 -6.34375 L 10.125 -12.109375 L 14.296875 -12.109375 L 14.296875 -5.328125 C 14.296875 -3.316406 13.769531 -1.863281 12.71875 -0.96875 C 11.675781 -0.0820312 10.015625 0.359375 7.734375 0.359375 C 5.453125 0.359375 3.785156 -0.0820312 2.734375 -0.96875 C 1.691406 -1.863281 1.171875 -3.316406 1.171875 -5.328125 L 1.171875 -12.109375 Z M 5.359375 -12.109375 "/></g></g></g></svg>